<svg width="74" height="74" viewBox="0 0 74 74" fill="none" xmlns="http://www.w3.org/2000/svg">
<g clip-path="url(#clip0_130_3783)">
<path fill-rule="evenodd" clip-rule="evenodd" d="M-0.110352 1.38977C-0.110352 0.561343 0.561221 -0.110229 1.38965 -0.110229H72.6101C73.4386 -0.110229 74.1101 0.561343 74.1101 1.38977V21.8655C74.1101 22.694 73.4386 23.3655 72.6101 23.3655C71.7817 23.3655 71.1101 22.694 71.1101 21.8655V2.88977H40.4499C40.4744 2.99732 40.4873 3.10927 40.4873 3.22424V21.254C40.4873 22.0825 39.8157 22.754 38.9873 22.754C38.1589 22.754 37.4873 22.0825 37.4873 21.254V3.22424C37.4873 3.10927 37.5002 2.99732 37.5247 2.88977H2.88965V35.4954H55.7941C56.6225 35.4954 57.2941 36.1669 57.2941 36.9954C57.2941 37.8238 56.6225 38.4954 55.7941 38.4954H2.88965V71.1103H71.1101V48.762C71.1101 47.9336 71.7817 47.262 72.6101 47.262C73.4386 47.262 74.1101 47.9336 74.1101 48.762V72.6103C74.1101 73.4387 73.4386 74.1103 72.6101 74.1103H1.38965C0.561221 74.1103 -0.110352 73.4387 -0.110352 72.6103V36.9954V1.38977ZM17.8166 14.0542C15.4828 14.0542 13.5908 15.9462 13.5908 18.28C13.5908 20.6138 15.4828 22.5058 17.8166 22.5058C20.1505 22.5058 22.0424 20.6138 22.0424 18.28C22.0424 15.9462 20.1505 14.0542 17.8166 14.0542ZM10.5908 18.28C10.5908 14.2893 13.8259 11.0542 17.8166 11.0542C21.8073 11.0542 25.0424 14.2893 25.0424 18.28C25.0424 22.2707 21.8073 25.5058 17.8166 25.5058C13.8259 25.5058 10.5908 22.2707 10.5908 18.28ZM13.9253 50.3195C13.0969 50.3195 12.4253 50.991 12.4253 51.8195V62.8263C12.4253 63.6548 13.0969 64.3263 13.9253 64.3263H42.0447C42.8732 64.3263 43.5447 63.6548 43.5447 62.8263V51.8195C43.5447 50.991 42.8732 50.3195 42.0447 50.3195H13.9253ZM15.4253 61.3263V53.3195H40.5447V61.3263H15.4253Z" fill="#221F1F"/>
</g>
<defs>
<clipPath id="clip0_130_3783">
<rect width="74" height="74" fill="white"/>
</clipPath>
</defs>
</svg>
