<svg width="55" height="56" viewBox="0 0 55 56" fill="none" xmlns="http://www.w3.org/2000/svg">
<path d="M5.95996 23.4201C7.72996 14.8501 14.49 8.10009 23.07 6.34009" stroke="#231F20" stroke-width="1.25" stroke-miterlimit="10"/>
<path d="M23.0895 49.45C14.4795 47.7 7.68945 40.91 5.93945 32.3" stroke="#231F20" stroke-width="1.25" stroke-miterlimit="10"/>
<path d="M49.0602 32.3101C47.3102 40.9201 40.5202 47.7101 31.9102 49.4601" stroke="#231F20" stroke-width="1.25" stroke-miterlimit="10"/>
<path d="M31.9199 6.34009C40.5299 8.09009 47.3199 14.8801 49.0699 23.4901" stroke="#231F20" stroke-width="1.25" stroke-miterlimit="10"/>
<path d="M27.5 10.3999C29.9853 10.3999 32 8.38518 32 5.8999C32 3.41462 29.9853 1.3999 27.5 1.3999C25.0147 1.3999 23 3.41462 23 5.8999C23 8.38518 25.0147 10.3999 27.5 10.3999Z" stroke="#231F20" stroke-width="1.25" stroke-miterlimit="10"/>
<path d="M27.5 54.3999C29.9853 54.3999 32 52.3852 32 49.8999C32 47.4146 29.9853 45.3999 27.5 45.3999C25.0147 45.3999 23 47.4146 23 49.8999C23 52.3852 25.0147 54.3999 27.5 54.3999Z" stroke="#231F20" stroke-width="1.25" stroke-miterlimit="10"/>
<path d="M49.5 32.3999C51.9853 32.3999 54 30.3852 54 27.8999C54 25.4146 51.9853 23.3999 49.5 23.3999C47.0147 23.3999 45 25.4146 45 27.8999C45 30.3852 47.0147 32.3999 49.5 32.3999Z" stroke="#231F20" stroke-width="1.25" stroke-miterlimit="10"/>
<path d="M5.5 23.3999C7.99 23.3999 10 25.4099 10 27.8999C10 30.3899 7.99 32.3999 5.5 32.3999C3.01 32.3999 1 30.3799 1 27.8999C1 25.4199 3.01 23.3999 5.5 23.3999Z" stroke="#231F20" stroke-width="1.25" stroke-miterlimit="10"/>
</svg>
