<svg width="47" height="46" viewBox="0 0 47 46" fill="none" xmlns="http://www.w3.org/2000/svg">
<path fill-rule="evenodd" clip-rule="evenodd" d="M16.9135 11.6182C10.6394 11.6182 5.5542 16.6969 5.5542 22.9682C5.5542 29.2409 10.6362 34.3229 16.9089 34.3229C18.2759 34.3229 19.5857 34.0819 20.7978 33.6407C17.8815 31.0133 16.0481 27.2072 16.0481 22.9728C16.0481 18.7363 17.8833 14.9285 20.8022 12.3009C19.5893 11.8592 18.2807 11.6182 16.9135 11.6182ZM24.3797 32.6002C24.4239 32.6244 24.467 32.651 24.5088 32.6799C26.2269 33.7253 28.2445 34.3275 30.4027 34.3275C36.6737 34.3275 41.7574 29.2438 41.7574 22.9728C41.7574 16.7018 36.6737 11.6182 30.4027 11.6182C28.2346 11.6182 26.2084 12.2259 24.4851 13.2802C24.4614 13.2958 24.4372 13.3107 24.4127 13.3249C21.192 15.3287 19.0481 18.9004 19.0481 22.9728C19.0481 27.0313 21.1773 30.5925 24.3797 32.6002ZM16.9089 37.3229C19.3436 37.3229 21.642 36.7156 23.6529 35.6447C25.6649 36.7187 27.9627 37.3275 30.4027 37.3275C38.3306 37.3275 44.7574 30.9007 44.7574 22.9728C44.7574 15.045 38.3306 8.61816 30.4027 8.61816C27.9651 8.61816 25.6695 9.22575 23.6589 10.2977C21.646 9.22649 19.3503 8.61816 16.9135 8.61816C8.98532 8.61816 2.5542 15.0373 2.5542 22.9682C2.5542 30.8977 8.97932 37.3229 16.9089 37.3229ZM32.7867 17.7216C33.37 18.161 33.6986 18.7554 33.7724 19.4975L33.7651 19.5012H34.9465C34.9207 18.8218 34.7213 18.2163 34.3447 17.6847C33.9681 17.153 33.4586 16.7358 32.8199 16.4294C32.2693 16.1652 31.6418 16.0163 30.9517 15.9802V14.4874H30.0989V15.9928C29.479 16.0448 28.9098 16.1921 28.3931 16.4331C27.7359 16.7395 27.2117 17.1678 26.8277 17.7105C26.4437 18.2533 26.2517 18.8883 26.2517 19.6045C26.2517 20.4648 26.5397 21.1663 27.1194 21.7201C27.699 22.2739 28.5113 22.7059 29.5598 23.0197L30.0989 23.1778V28.6169C29.6535 28.5835 29.243 28.4931 28.8657 28.3473C28.3784 28.159 27.9796 27.8821 27.6769 27.5166C27.3741 27.1511 27.2006 26.708 27.1563 26.1801H25.9047C25.9527 26.8853 26.1668 27.5055 26.5508 28.0409C26.9348 28.5762 27.4627 28.9934 28.131 29.2962C28.7017 29.5533 29.3577 29.7012 30.0989 29.74V31.1902H30.9517V29.7376C31.726 29.6931 32.4056 29.5312 32.986 29.2519C33.6764 28.9196 34.2081 28.4654 34.5773 27.8969C34.9465 27.3283 35.1311 26.6859 35.1311 25.9733C35.1311 25.4158 35.024 24.9395 34.8099 24.5408C34.5958 24.1421 34.3115 23.8061 33.957 23.5292C33.6026 23.256 33.2112 23.0271 32.7867 22.8425C32.3621 22.6579 31.9338 22.5102 31.5092 22.392L30.9517 22.2315V17.0774C31.6755 17.1302 32.2856 17.3442 32.7867 17.7216ZM30.0989 17.0877V21.9859C29.7776 21.8936 29.4564 21.7828 29.1426 21.6462C28.8288 21.5096 28.5408 21.3472 28.2824 21.1589C28.0239 20.9669 27.8172 20.7417 27.6658 20.4759C27.5144 20.21 27.4369 19.8999 27.4369 19.5492C27.4369 19.0729 27.5735 18.6446 27.8393 18.268C28.1051 17.8951 28.478 17.5998 28.9469 17.3856C29.2895 17.2292 29.6735 17.1299 30.0989 17.0877ZM30.9517 23.4279V28.6134C31.4358 28.5736 31.8782 28.4682 32.2772 28.2956C32.7977 28.0704 33.2039 27.7566 33.5029 27.3578C33.802 26.9554 33.9497 26.4865 33.9497 25.9512C33.9497 25.497 33.8315 25.1205 33.5989 24.814C33.3626 24.5076 33.0377 24.2491 32.6168 24.0424C32.1959 23.8319 31.7123 23.6473 31.1585 23.4886L30.9517 23.4279Z" fill="#231F20"/>
</svg>
