<svg width="100" height="100" viewBox="0 0 100 100" fill="none" xmlns="http://www.w3.org/2000/svg">
<path fill-rule="evenodd" clip-rule="evenodd" d="M34.96 23.5C20.347 23.5 8.5 35.3298 8.5 49.94C8.5 64.5516 20.3384 76.39 34.95 76.39C39.1959 76.39 43.2086 75.3906 46.7605 73.6172C39.5275 68.2511 34.8398 59.648 34.8398 49.95C34.8398 40.2472 39.5321 31.6404 46.7712 26.2749C43.2139 24.4997 39.2067 23.5 34.96 23.5ZM50.31 72.4079C50.3774 72.4427 50.4425 72.4828 50.5044 72.528C54.5188 74.9843 59.239 76.4 64.2898 76.4C78.8978 76.4 90.7398 64.5579 90.7398 49.95C90.7398 35.3421 78.8978 23.5 64.2898 23.5C59.225 23.5 54.4926 24.9236 50.4711 27.3925C50.4367 27.4157 50.4014 27.4374 50.3654 27.4576C42.8468 32.1221 37.8398 40.4513 37.8398 49.95C37.8398 59.4253 42.8222 67.7369 50.31 72.4079ZM34.95 79.39C40.2858 79.39 45.2986 77.9697 49.6148 75.489C53.9352 77.9769 58.9463 79.4 64.2898 79.4C80.5546 79.4 93.7398 66.2148 93.7398 49.95C93.7398 33.6852 80.5546 20.5 64.2898 20.5C58.9517 20.5 53.9452 21.9203 49.6277 24.4036C45.3042 21.9219 40.2988 20.5 34.96 20.5C18.693 20.5 5.5 33.6702 5.5 49.94C5.5 66.2084 18.6816 79.39 34.95 79.39ZM69.4733 38.5322C70.7417 39.4875 71.4561 40.78 71.6167 42.3935L71.6006 42.4016H74.1695C74.1133 40.9245 73.6798 39.6079 72.861 38.4519C72.0422 37.296 70.9343 36.3888 69.5456 35.7225C68.3483 35.1481 66.984 34.8243 65.4836 34.7459V31.5H63.6292V34.7733C62.2814 34.8863 61.0438 35.2067 59.9204 35.7306C58.4915 36.3969 57.3516 37.3281 56.5167 38.5081C55.6818 39.6882 55.2644 41.069 55.2644 42.6263C55.2644 44.4968 55.8905 46.022 57.1509 47.2262C58.4112 48.4303 60.1773 49.3695 62.4571 50.0519L63.6292 50.3957V62.2221C62.6608 62.1494 61.7683 61.9528 60.9479 61.6358C59.8883 61.2264 59.0213 60.6243 58.363 59.8296C57.7048 59.0348 57.3275 58.0715 57.2311 56.9236H54.5098C54.6141 58.4569 55.0797 59.8055 55.9146 60.9695C56.7495 62.1335 57.8974 63.0406 59.3504 63.6989C60.5914 64.258 62.0176 64.5797 63.6292 64.6639V67.8171H65.4836V64.6588C67.1672 64.562 68.6448 64.21 69.9068 63.6026C71.408 62.8801 72.5639 61.8927 73.3667 60.6564C74.1695 59.4202 74.5709 58.0234 74.5709 56.474C74.5709 55.2618 74.3381 54.2263 73.8725 53.3593C73.4069 52.4923 72.7887 51.7618 72.0181 51.1597C71.2474 50.5657 70.3965 50.068 69.4733 49.6666C68.5501 49.2652 67.6189 48.9441 66.6957 48.6872L65.4836 48.3381V37.1316C67.0572 37.2464 68.3837 37.7116 69.4733 38.5322ZM63.6292 37.154V47.8042C62.9308 47.6035 62.2324 47.3626 61.55 47.0656C60.8677 46.7686 60.2415 46.4154 59.6796 46.006C59.1176 45.5885 58.6681 45.0988 58.339 44.5208C58.0098 43.9429 57.8412 43.2685 57.8412 42.5059C57.8412 41.4703 58.1383 40.5391 58.7163 39.7203C59.2942 38.9095 60.105 38.2673 61.1245 37.8017C61.8694 37.4615 62.7043 37.2456 63.6292 37.154ZM65.4836 50.9396V62.2144C66.5361 62.1279 67.498 61.8987 68.3655 61.5234C69.4974 61.0337 70.3804 60.3514 71.0307 59.4844C71.6809 58.6094 72.002 57.5899 72.002 56.4259C72.002 55.4385 71.7451 54.6196 71.2394 53.9533C70.7256 53.287 70.0192 52.7251 69.104 52.2756C68.1889 51.818 67.1373 51.4166 65.9331 51.0714L65.4836 50.9396Z" fill="#231F20"/>
</svg>
