<svg width="46" height="47" viewBox="0 0 46 47" fill="none" xmlns="http://www.w3.org/2000/svg">
<g clip-path="url(#clip0_1380_391)">
<path fill-rule="evenodd" clip-rule="evenodd" d="M10.7793 22.7156C10.7793 15.8709 16.3634 10.2937 23.2293 10.2937C30.0952 10.2937 35.6793 15.8709 35.6793 22.7156C35.6793 22.8039 35.6869 22.8906 35.7016 22.9747C35.6869 23.0589 35.6793 23.1455 35.6793 23.2339C35.6793 30.0786 30.0952 35.6558 23.2293 35.6558C16.3634 35.6558 10.7793 30.0786 10.7793 23.2339C10.7793 23.1455 10.7717 23.0589 10.757 22.9747C10.7717 22.8906 10.7793 22.8039 10.7793 22.7156ZM38.6793 22.7156C38.6793 22.8039 38.6716 22.8906 38.657 22.9747C38.6716 23.0589 38.6793 23.1455 38.6793 23.2339C38.6793 31.7412 31.7463 38.6558 23.2293 38.6558C14.7122 38.6558 7.7793 31.7412 7.7793 23.2339C7.7793 23.1455 7.78694 23.0589 7.80161 22.9747C7.78694 22.8906 7.7793 22.8039 7.7793 22.7156C7.7793 14.2083 14.7122 7.29373 23.2293 7.29373C31.7463 7.29373 38.6793 14.2083 38.6793 22.7156ZM15.8698 22.7156C15.8698 18.6632 19.1611 15.3741 23.2292 15.3741C27.2972 15.3741 30.5885 18.6632 30.5885 22.7156C30.5885 22.804 30.5962 22.8906 30.6108 22.9748C30.5962 23.059 30.5885 23.1455 30.5885 23.2339C30.5885 27.2864 27.2972 30.5754 23.2292 30.5754C19.1611 30.5754 15.8698 27.2864 15.8698 23.2339C15.8698 23.1455 15.8622 23.059 15.8475 22.9748C15.8622 22.8906 15.8698 22.804 15.8698 22.7156ZM12.8921 22.9748C12.8775 22.8906 12.8698 22.804 12.8698 22.7156C12.8698 17.0006 17.51 12.3741 23.2292 12.3741C28.9483 12.3741 33.5885 17.0006 33.5885 22.7156C33.5885 22.804 33.5809 22.8906 33.5662 22.9748C33.5809 23.059 33.5885 23.1455 33.5885 23.2339C33.5885 28.9489 28.9483 33.5754 23.2292 33.5754C17.51 33.5754 12.8698 28.9489 12.8698 23.2339C12.8698 23.1455 12.8775 23.059 12.8921 22.9748ZM17.9606 22.7155C17.9606 19.8106 20.3259 17.4544 23.2293 17.4544C26.1326 17.4544 28.498 19.8106 28.498 22.7155C28.498 22.8039 28.4903 22.8905 28.4757 22.9747C28.4903 23.0589 28.498 23.1455 28.498 23.2339C28.498 26.1388 26.1326 28.495 23.2293 28.495C20.3259 28.495 17.9606 26.1388 17.9606 23.2339C17.9606 23.1455 17.9682 23.0589 17.9829 22.9747C17.9682 22.8905 17.9606 22.8039 17.9606 22.7155ZM20.9382 22.9747C20.9529 23.0589 20.9606 23.1455 20.9606 23.2339C20.9606 24.4763 21.977 25.495 23.2293 25.495C24.4815 25.495 25.498 24.4763 25.498 23.2339C25.498 23.1455 25.5056 23.0589 25.5203 22.9747C25.5056 22.8905 25.498 22.8039 25.498 22.7155C25.498 21.4732 24.4815 20.4544 23.2293 20.4544C21.977 20.4544 20.9606 21.4732 20.9606 22.7155C20.9606 22.8039 20.9529 22.8905 20.9382 22.9747Z" fill="#231F20"/>
</g>
<defs>
<clipPath id="clip0_1380_391">
<rect width="31.2743" height="33.1139" fill="white" transform="translate(7.3623 6.87772)"/>
</clipPath>
</defs>
</svg>
