<svg width="100" height="100" viewBox="0 0 100 100" fill="none" xmlns="http://www.w3.org/2000/svg">
<path fill-rule="evenodd" clip-rule="evenodd" d="M21.6685 48.4364C21.6685 32.5778 34.602 19.666 50.5001 19.666C66.3982 19.666 79.3317 32.5778 79.3317 48.4364C79.3317 48.6357 79.3705 48.826 79.4411 48.9999C79.3705 49.1739 79.3317 49.3642 79.3317 49.5635C79.3317 65.4221 66.3982 78.3339 50.5001 78.3339C34.602 78.3339 21.6685 65.4221 21.6685 49.5635C21.6685 49.3642 21.6296 49.1739 21.559 48.9999C21.6296 48.826 21.6685 48.6357 21.6685 48.4364ZM82.3317 48.4364C82.3317 48.6357 82.2928 48.826 82.2222 48.9999C82.2928 49.1739 82.3317 49.3642 82.3317 49.5635C82.3317 67.0847 68.0493 81.3339 50.5001 81.3339C32.9508 81.3339 18.6685 67.0847 18.6685 49.5635C18.6685 49.3642 18.7073 49.1739 18.7779 48.9999C18.7073 48.826 18.6685 48.6357 18.6685 48.4364C18.6685 30.9152 32.9508 16.666 50.5001 16.666C68.0493 16.666 82.3317 30.9152 82.3317 48.4364ZM32.7368 48.4365C32.7368 38.6491 40.6852 30.7124 50.4998 30.7124C60.3144 30.7124 68.2628 38.6491 68.2628 48.4365C68.2628 48.6358 68.3017 48.826 68.3722 49C68.3017 49.174 68.2628 49.3642 68.2628 49.5635C68.2628 59.3509 60.3144 67.2876 50.4998 67.2876C40.6852 67.2876 32.7368 59.3509 32.7368 49.5635C32.7368 49.3642 32.6979 49.174 32.6274 49C32.6979 48.826 32.7368 48.6358 32.7368 48.4365ZM29.8463 49C29.7757 48.826 29.7368 48.6358 29.7368 48.4365C29.7368 36.9865 39.034 27.7124 50.4998 27.7124C61.9656 27.7124 71.2628 36.9865 71.2628 48.4365C71.2628 48.6358 71.2239 48.826 71.1533 49C71.2239 49.174 71.2628 49.3642 71.2628 49.5635C71.2628 61.0135 61.9656 70.2876 50.4998 70.2876C39.034 70.2876 29.7368 61.0135 29.7368 49.5635C29.7368 49.3642 29.7757 49.174 29.8463 49ZM40.8057 48.4364C40.8057 43.0964 45.1567 38.7585 50.5 38.7585C55.8434 38.7585 60.1944 43.0964 60.1944 48.4364C60.1944 48.6357 60.1555 48.8259 60.0849 48.9999C60.1555 49.1739 60.1944 49.3642 60.1944 49.5635C60.1944 54.9034 55.8434 59.2413 50.5 59.2413C45.1567 59.2413 40.8057 54.9034 40.8057 49.5635C40.8057 49.3642 40.8445 49.1739 40.9151 48.9999C40.8445 48.8259 40.8057 48.6357 40.8057 48.4364ZM43.6962 48.9999C43.7668 49.1739 43.8057 49.3642 43.8057 49.5635C43.8057 53.2409 46.8078 56.2413 50.5 56.2413C54.1923 56.2413 57.1944 53.2409 57.1944 49.5635C57.1944 49.3642 57.2333 49.1739 57.3039 48.9999C57.2333 48.8259 57.1944 48.6357 57.1944 48.4364C57.1944 44.759 54.1923 41.7585 50.5 41.7585C46.8078 41.7585 43.8057 44.759 43.8057 48.4364C43.8057 48.6357 43.7668 48.8259 43.6962 48.9999Z" fill="#231F20"/>
</svg>
