<svg width="51" height="47" viewBox="0 0 51 47" fill="none" xmlns="http://www.w3.org/2000/svg">
<path fill-rule="evenodd" clip-rule="evenodd" d="M18.5627 6.38513C16.4365 6.38513 14.6769 8.0569 14.6053 10.1815C14.6014 10.2259 14.5994 10.2708 14.5994 10.3161V16.5286C14.5994 18.7168 16.3881 20.4596 18.559 20.4596H34.1703L36.6829 22.9429C37.2672 23.5205 38.2074 23.5205 38.7918 22.9429L41.3043 20.4596H44.5105C46.6814 20.4596 48.4701 18.7168 48.4701 16.5286V10.3161C48.4701 8.12794 46.6814 6.38513 44.5105 6.38513H18.5627ZM17.5994 16.5286V10.4222C17.6018 10.3872 17.6031 10.3518 17.6031 10.3161C17.6031 9.81781 18.0154 9.38513 18.5627 9.38513H44.5105C45.0577 9.38513 45.4701 9.8178 45.4701 10.3161V16.5286C45.4701 17.0269 45.0577 17.4596 44.5105 17.4596H40.6881C40.2933 17.4596 39.9145 17.6153 39.6337 17.8928L37.7373 19.7671L35.841 17.8928C35.5602 17.6153 35.1813 17.4596 34.7865 17.4596H18.559C18.0117 17.4596 17.5994 17.0269 17.5994 16.5286ZM8.19287 27.4243C8.19287 26.926 8.60524 26.4933 9.15249 26.4933H35.104C35.6513 26.4933 36.0636 26.926 36.0636 27.4243V33.6368C36.0636 34.1351 35.6513 34.5678 35.104 34.5678H18.8765C18.4817 34.5678 18.1028 34.7234 17.822 35.0009L15.9257 36.8752L14.0293 35.0009C13.7485 34.7234 13.3696 34.5678 12.9749 34.5678H9.15249C8.60524 34.5678 8.19287 34.1351 8.19287 33.6368V27.4243ZM9.15249 23.4933C6.9816 23.4933 5.19287 25.2361 5.19287 27.4243V33.6368C5.19287 35.825 6.9816 37.5678 9.15249 37.5678H12.3587L14.8712 40.0511C15.4556 40.6286 16.3958 40.6286 16.9801 40.0511L19.4926 37.5678H35.104C37.2749 37.5678 39.0636 35.825 39.0636 33.6368V27.4243C39.0636 25.2361 37.2749 23.4933 35.104 23.4933H9.15249Z" fill="#231F20"/>
</svg>
