<svg width="100" height="100" viewBox="0 0 100 100" fill="none" xmlns="http://www.w3.org/2000/svg">
<g clip-path="url(#clip0_130_4422)">
<path fill-rule="evenodd" clip-rule="evenodd" d="M32.021 14.6904C28.3133 14.6904 25.2699 17.6165 25.1753 21.2995C25.1685 21.3574 25.165 21.4164 25.165 21.4761V34.9841C25.165 38.7497 28.2462 41.7698 32.013 41.7698H66.6805L72.6582 47.6779C73.2426 48.2555 74.1828 48.2555 74.7671 47.6779L80.7448 41.7698H88.4397C92.2065 41.7698 95.2876 38.7496 95.2876 34.9841V21.4761C95.2876 17.7106 92.2065 14.6904 88.4397 14.6904H32.021ZM28.165 34.9841V21.6323C28.1703 21.581 28.1731 21.5289 28.1731 21.4761C28.1731 19.4004 29.8778 17.6904 32.021 17.6904H88.4397C90.5829 17.6904 92.2876 19.4004 92.2876 21.4761V34.9841C92.2876 37.0598 90.5829 38.7698 88.4397 38.7698H80.1286C79.7339 38.7698 79.355 38.9254 79.0742 39.2029L73.7127 44.5021L68.3512 39.2029C68.0704 38.9254 67.6915 38.7698 67.2967 38.7698H32.013C29.8698 38.7698 28.165 37.0598 28.165 34.9841ZM7.7124 58.6746C7.7124 56.5989 9.41716 54.8889 11.5604 54.8889H67.987C70.1302 54.8889 71.835 56.5989 71.835 58.6746V72.1826C71.835 74.2583 70.1302 75.9683 67.987 75.9683H32.7033C32.3085 75.9683 31.9297 76.1239 31.6489 76.4014L26.2873 81.7005L20.9258 76.4014C20.645 76.1239 20.2662 75.9683 19.8714 75.9683H11.5604C9.41716 75.9683 7.7124 74.2583 7.7124 72.1826V58.6746ZM11.5604 51.8889C7.79351 51.8889 4.7124 54.9091 4.7124 58.6746V72.1826C4.7124 75.9481 7.79352 78.9683 11.5604 78.9683H19.2552L25.2329 84.8764C25.8173 85.4539 26.7574 85.4539 27.3418 84.8764L33.3195 78.9683H67.987C71.7539 78.9683 74.835 75.9481 74.835 72.1826V58.6746C74.835 54.9091 71.7539 51.8889 67.987 51.8889H11.5604Z" fill="#231F20"/>
</g>
<defs>
<clipPath id="clip0_130_4422">
<rect width="90" height="70" fill="white" transform="translate(5 15)"/>
</clipPath>
</defs>
</svg>
