<svg width="100" height="100" viewBox="0 0 100 100" fill="none" xmlns="http://www.w3.org/2000/svg">
<g clip-path="url(#clip0_130_4362)">
<path fill-rule="evenodd" clip-rule="evenodd" d="M29.4628 4H24.481V8.08325H6.21729C5.38886 8.08325 4.71729 8.75482 4.71729 9.58325V94.8019C4.71729 95.6303 5.38886 96.3019 6.21729 96.3019H92.7831C93.6116 96.3019 94.2831 95.6303 94.2831 94.8019V9.58325C94.2831 8.75482 93.6116 8.08325 92.7831 8.08325H74.6078V4H69.626V8.08325H29.4628V4ZM69.626 11.0833H29.4628V14.847H24.481V11.0833H7.71729V78.6672H91.2831V11.0833H74.6078V14.847H69.626V11.0833ZM34.3557 26.5408H19.4102V37.3319H34.3557V26.5408ZM42.0312 26.5408H56.9768V37.3319H42.0312V26.5408ZM79.5901 26.5408H64.6445V37.3319H79.5901V26.5408ZM19.4102 41.3975H34.3557V52.1886H19.4102V41.3975ZM56.9768 41.3975H42.0312V52.1886H56.9768V41.3975ZM64.6445 41.3975H79.5901V52.1886H64.6445V41.3975ZM34.3557 56.2622H19.4102V67.0533H34.3557V56.2622ZM42.0312 56.2622H56.9768V67.0533H42.0312V56.2622ZM79.5901 56.2622H64.6445V67.0533H79.5901V56.2622Z" fill="#231F20"/>
</g>
<defs>
<clipPath id="clip0_130_4362">
<rect width="89" height="92" fill="white" transform="translate(5 4)"/>
</clipPath>
</defs>
</svg>
