<svg width="47" height="46" viewBox="0 0 47 46" fill="none" xmlns="http://www.w3.org/2000/svg">
<g clip-path="url(#clip0_1380_352)">
<path fill-rule="evenodd" clip-rule="evenodd" d="M13.7232 1.83966H11.432V2.90749H3.03223C2.2038 2.90749 1.53223 3.57906 1.53223 4.40749V43.6009C1.53223 44.4293 2.2038 45.1009 3.03223 45.1009H42.8452C43.6737 45.1009 44.3452 44.4293 44.3452 43.6009V4.40749C44.3452 3.57906 43.6737 2.90749 42.8452 2.90749H34.4861V1.83966H32.1949V2.90749H13.7232V1.83966ZM32.1949 5.90749H13.7232V6.82838H11.432V5.90749H4.53223V36.1803H41.3452V5.90749H34.4861V6.82838H32.1949V5.90749ZM15.9735 12.2065H9.09984V17.1695H15.9735V12.2065ZM19.5036 12.2065H26.3773V17.1695H19.5036V12.2065ZM36.7776 12.2065H29.9039V17.1695H36.7776V12.2065ZM9.09984 19.0394H15.9735V24.0024H9.09984V19.0394ZM26.3773 19.0394H19.5036V24.0024H26.3773V19.0394ZM29.9039 19.0394H36.7776V24.0024H29.9039V19.0394ZM15.9735 25.8759H9.09984V30.8389H15.9735V25.8759ZM19.5036 25.8759H26.3773V30.8389H19.5036V25.8759ZM36.7776 25.8759H29.9039V30.8389H36.7776V25.8759Z" fill="#231F20"/>
</g>
<defs>
<clipPath id="clip0_1380_352">
<rect width="40.9325" height="42.3123" fill="white" transform="translate(2.47217 1.83966)"/>
</clipPath>
</defs>
</svg>
