<svg width="60" height="60" viewBox="0 0 60 60" fill="none" xmlns="http://www.w3.org/2000/svg">
<g clip-path="url(#clip0_4397_1094)">
<path d="M31.66 14H5.31C2.37737 14 0 16.3774 0 19.31V33.75C0 36.6826 2.37737 39.06 5.31 39.06H31.66C34.5926 39.06 36.97 36.6826 36.97 33.75V19.31C36.97 16.3774 34.5926 14 31.66 14Z" stroke="#231F20" stroke-width="1.3" stroke-miterlimit="10"/>
<path d="M42.74 32.8H31.2C29.2836 32.8 27.73 34.3536 27.73 36.2701V41.8601C27.73 43.7765 29.2836 45.33 31.2 45.33H42.74C44.6564 45.33 46.21 43.7765 46.21 41.8601V36.2701C46.21 34.3536 44.6564 32.8 42.74 32.8Z" fill="white" stroke="#231F20" stroke-width="1.3" stroke-miterlimit="10"/>
</g>
<defs>
<clipPath id="clip0_4397_1094">
<rect width="60" height="60" fill="white"/>
</clipPath>
</defs>
</svg>
